<svg xmlns="http://www.w3.org/2000/svg" xmlns:svg="http://www.w3.org/2000/svg" id="svg2" width="64" height="64" version="1.1" viewBox="0 0 29.999 30"><metadata id="metadata7"/><g style="fill:#e10098" id="g5464" transform="matrix(0.07660803,0,0,0.07660803,-0.321894,-0.321754)"><path id="path5444" d="m 57.468,302.66 -14.376,-8.3 160.15,-277.38 14.376,8.3 z"/><path id="path5446" d="m 39.8,272.2 h 320.3 v 16.6 H 39.8 Z"/><path id="path5448" d="m 206.35,374.03 -160.21,-92.5 8.3,-14.376 160.21,92.5 z m 139.17,-241.08 -160.21,-92.5 8.3,-14.376 160.21,92.5 z"/><path id="path5450" d="m 54.482,132.88 -8.3,-14.375 160.21,-92.5 8.3,14.376 z"/><path id="path5452" d="M 342.57,302.66 182.42,25.28 l 14.376,-8.3 160.15,277.38 z M 52.5,107.5 h 16.6 v 185 H 52.5 Z m 278.4,0 h 16.6 v 185 h -16.6 z"/><path id="path5454" d="m 203.52,367 -7.25,-12.558 139.34,-80.45 7.25,12.557 z"/><path id="path5456" d="m 369.5,297.9 c -9.6,16.7 -31,22.4 -47.7,12.8 -16.7,-9.6 -22.4,-31 -12.8,-47.7 9.6,-16.7 31,-22.4 47.7,-12.8 16.8,9.7 22.5,31 12.8,47.7 M 90.9,137 c -9.6,16.7 -31,22.4 -47.7,12.8 -16.7,-9.6 -22.4,-31 -12.8,-47.7 9.6,-16.7 31,-22.4 47.7,-12.8 16.7,9.7 22.4,31 12.8,47.7 M 30.5,297.9 c -9.6,-16.7 -3.9,-38 12.8,-47.7 16.7,-9.6 38,-3.9 47.7,12.8 9.6,16.7 3.9,38 -12.8,47.7 -16.8,9.6 -38.1,3.9 -47.7,-12.8 M 309.1,137 c -9.6,-16.7 -3.9,-38 12.8,-47.7 16.7,-9.6 38,-3.9 47.7,12.8 9.6,16.7 3.9,38 -12.8,47.7 -16.7,9.6 -38.1,3.9 -47.7,-12.8 M 200,395.8 c -19.3,0 -34.9,-15.6 -34.9,-34.9 0,-19.3 15.6,-34.9 34.9,-34.9 19.3,0 34.9,15.6 34.9,34.9 0,19.2 -15.6,34.9 -34.9,34.9 M 200,74 c -19.3,0 -34.9,-15.6 -34.9,-34.9 0,-19.3 15.6,-34.9 34.9,-34.9 19.3,0 34.9,15.6 34.9,34.9 0,19.3 -15.6,34.9 -34.9,34.9"/></g></svg>