<svg xmlns="http://www.w3.org/2000/svg" xmlns:xlink="http://www.w3.org/1999/xlink" id="Layer_1" x="0" y="0" viewBox="0 0 400 245" xml:space="preserve" style="enable-background:new 0 0 400 245"><style type="text/css">.st1{fill:#fff}.st386{fill:#2b3238}.st387{fill:#e94235}</style><g><g><path d="M102.34,198.97c3.4-5.82,10.54-8.78,18.01-8.78c14.16,0,25.91,10.32,25.91,26.68 c0,16.25-11.97,26.79-26.02,26.79c-7.14,0-14.49-3.18-17.9-9v3.4c0,2.74-2.2,5.05-5.05,5.05c-2.74,0-4.94-2.31-4.94-5.05V177.7 c0-2.74,2.2-5.05,4.94-5.05c2.85,0,5.05,2.31,5.05,5.05V198.97z M119.47,233.88c9.22,0,16.58-7.03,16.58-17.13 c0-10.21-7.36-16.8-16.58-16.8c-8.23,0-17.02,5.82-17.02,16.8C102.45,227.62,110.36,233.88,119.47,233.88z" class="st386"/><path d="M196.32,234.65c-3.4,5.82-10.87,9-18.01,9c-14.05,0-26.02-10.54-26.02-26.79 c0-16.36,11.97-26.68,26.02-26.68c7.14,0,14.6,2.96,18.01,8.78v-3.18c0-2.74,2.2-5.05,4.94-5.05c2.85,0,5.05,2.31,5.05,5.05v42.27 c0,2.74-2.2,5.05-5.05,5.05c-2.74,0-4.94-2.31-4.94-5.05V234.65z M179.19,199.96c-9.22,0-16.69,6.59-16.69,16.8 c0,10.1,7.47,17.13,16.69,17.13c9.11,0,17.02-6.26,17.02-17.13C196.21,205.78,187.43,199.96,179.19,199.96z" class="st386"/><path d="M233.32,234.87c5.16,0,9-2.74,9-6.81c0-3.73-2.96-5.6-6.81-6.48l-7.03-1.65 c-8.67-2.31-13.83-6.59-13.83-14.71c0-8.45,7.58-15.04,17.9-15.04c6.7,0,13.17,2.42,16.14,8.34c0.44,0.77,0.55,1.65,0.55,2.31 c0,3.29-3.18,4.5-4.72,4.5c-1.43,0-2.53-0.77-3.62-2.2c-2.31-3.07-4.94-4.28-8.12-4.28c-4.83,0-8.01,2.85-8.01,6.7 c0,3.29,3.18,5.16,6.48,5.93l7.58,1.87c10.65,2.63,13.28,9.11,13.28,14.93c0,9.55-9.22,15.37-19.87,15.37 c-7.9,0-16.03-4.39-18.44-12.3c-0.11-0.55-0.22-1.1-0.22-1.54c0-2.63,2.53-3.95,4.83-3.95c1.76,0,3.51,0.88,4.28,2.85 C224.1,232.45,228.16,234.87,233.32,234.87z" class="st386"/><path d="M303.69,220.71h-37.77c1.21,8.56,7.9,13.94,16.58,13.94c6.15,0,9.55-1.54,13.06-5.38 c1.87-2.09,4.72-2.74,6.7-1.32c1.98,1.54,2.42,4.5,0.88,6.26c-4.94,6.37-12.63,9.44-20.97,9.44c-14.6,0-26.24-10.65-26.24-26.9 s11.64-26.57,26.24-26.57c14.6,0,25.47,10.32,25.47,26.57C307.65,219.06,305.78,220.71,303.69,220.71z M297.77,212.91 c-1.21-8.56-7.36-13.72-15.59-13.72c-8.45,0-15.04,5.16-16.25,13.72H297.77z" class="st386"/></g><circle cx="200.04" cy="81.66" r="80.32" class="st387"/><path d="M200.04,137.21c-19.05,0-35.65-15.3-35.65-34.63c0-11.83,5.48-21.36,15.88-26.84 c-5.92-5.77-9.53-11.69-9.53-20.2c0-16.6,12.7-29.44,29.3-29.44s29.44,12.84,29.44,29.44c0,8.66-3.75,14.43-9.67,20.2 c10.39,5.48,15.88,15.01,15.88,26.84C235.68,121.91,219.09,137.21,200.04,137.21z M200.04,86.12c-9.09,0-16.45,7.36-16.45,16.45 c0,9.09,7.36,16.45,16.45,16.45c9.09,0,16.45-7.36,16.45-16.45C216.49,93.48,209.13,86.12,200.04,86.12z M200.04,44.27 c-6.35,0-11.26,5.34-11.26,11.54c0,6.21,5.05,11.4,11.26,11.4c6.21,0,11.4-5.19,11.4-11.4C211.44,49.47,206.39,44.27,200.04,44.27z" class="st1"/></g></svg>