<svg xmlns="http://www.w3.org/2000/svg" xmlns:xlink="http://www.w3.org/1999/xlink" id="Layer_1" x="0" y="0" viewBox="0 0 400 245" xml:space="preserve" style="enable-background:new 0 0 400 245"><style type="text/css">.st0{fill:#262f3e}.st1{fill-rule:evenodd;clip-rule:evenodd;fill:#f8991d}</style><g><path d="M113.1,89.9c0,4.9,0.5,8.9,1.5,11.8c1.1,2.9,2.4,6.1,4.2,9.5c0.7,1.1,0.9,2.1,0.9,3c0,1.3-0.8,2.6-2.5,4 l-8.3,5.6c-1.2,0.8-2.4,1.2-3.4,1.2c-1.3,0-2.6-0.7-4-1.9c-1.9-2-3.4-4.1-4.8-6.2c-1.3-2.3-2.6-4.8-4.1-7.8 c-10.3,12.2-23.3,18.3-38.9,18.3c-11.1,0-20-3.2-26.5-9.5c-6.5-6.4-9.8-14.8-9.8-25.4c0-11.3,4-20.4,12.1-27.3s18.8-10.3,32.5-10.3 c4.5,0,9.1,0.4,14,1.1c4.9,0.7,9.9,1.7,15.2,2.9v-9.7C91.1,39,89,32,84.9,27.9c-4.2-4.1-11.4-6.1-21.6-6.1c-4.6,0-9.4,0.5-14.3,1.7 s-9.7,2.6-14.3,4.5C32.6,29,31,29.5,30,29.8c-0.9,0.3-1.6,0.4-2.1,0.4c-1.9,0-2.8-1.3-2.8-4.1v-6.5c0-2.1,0.3-3.7,0.9-4.6 c0.7-0.9,1.9-1.9,3.7-2.8c4.6-2.4,10.2-4.4,16.7-6C53,4.5,59.8,3.7,67.1,3.7c15.8,0,27.3,3.6,34.7,10.7c7.3,7.2,11,18,11,32.6v42.9 H113.1z M59.3,110c4.4,0,8.9-0.8,13.6-2.4c4.8-1.6,9-4.5,12.6-8.5c2.1-2.5,3.7-5.3,4.5-8.5s1.3-7,1.3-11.5v-5.6 c-3.8-0.9-7.9-1.7-12.2-2.3s-8.3-0.8-12.5-0.8c-8.9,0-15.4,1.7-19.7,5.3c-4.4,3.6-6.5,8.6-6.5,15.2c0,6.2,1.6,10.9,4.9,14 C48.6,108.5,53.2,110,59.3,110z M165.7,124.4c-2.4,0-4-0.4-5-1.3c-1.1-0.8-2-2.6-2.8-5.2L126.7,15.5c-0.8-2.6-1.2-4.4-1.2-5.3 c0-2.1,1.1-3.3,3.2-3.3h13c2.5,0,4.2,0.4,5.2,1.3c1.1,0.8,1.9,2.6,2.6,5.2l22.3,87.7l20.7-87.7c0.7-2.6,1.5-4.4,2.5-5.2 c1.1-0.8,2.9-1.3,5.3-1.3h10.6c2.5,0,4.2,0.4,5.3,1.3c1.1,0.8,2,2.6,2.5,5.2l20.9,88.8l22.9-88.8c0.8-2.6,1.7-4.4,2.6-5.2 c1.1-0.8,2.8-1.3,5.2-1.3h12.3c2.1,0,3.3,1.1,3.3,3.3c0,0.7-0.1,1.3-0.3,2.1c-0.1,0.8-0.4,1.9-0.9,3.3L252.8,118 c-0.8,2.6-1.7,4.4-2.8,5.2s-2.8,1.3-5,1.3h-11.4c-2.5,0-4.2-0.4-5.3-1.3c-1.1-0.9-2-2.6-2.5-5.3l-20.5-85.4l-20.4,85.3 c-0.7,2.6-1.5,4.4-2.5,5.3c-1.1,0.9-2.9,1.3-5.3,1.3H165.7z M335.9,127.9c-6.9,0-13.8-0.8-20.4-2.4c-6.6-1.6-11.8-3.3-15.2-5.3 c-2.1-1.2-3.6-2.5-4.1-3.7c-0.5-1.2-0.8-2.5-0.8-3.7v-6.8c0-2.8,1.1-4.1,3-4.1c0.8,0,1.6,0.1,2.4,0.4c0.8,0.3,2,0.8,3.3,1.3 c4.5,2,9.4,3.6,14.6,4.6c5.3,1.1,10.5,1.6,15.8,1.6c8.3,0,14.8-1.5,19.3-4.4c4.5-2.9,6.9-7.2,6.9-12.6c0-3.7-1.2-6.8-3.6-9.3 c-2.4-2.5-6.9-4.8-13.4-6.9l-19.2-6c-9.7-3-16.8-7.6-21.2-13.5c-4.4-5.8-6.6-12.3-6.6-19.2c0-5.6,1.2-10.5,3.6-14.7 c2.4-4.2,5.6-7.9,9.5-10.9c4-3,8.5-5.3,13.8-6.9c5.3-1.6,10.9-2.3,16.7-2.3c2.9,0,6,0.1,8.9,0.5c3,0.4,5.8,0.9,8.6,1.5 c2.6,0.7,5.2,1.3,7.6,2.1c2.4,0.8,4.2,1.6,5.6,2.4c1.9,1.1,3.2,2.1,4,3.3c0.8,1.1,1.2,2.5,1.2,4.4v6.2c0,2.8-1.1,4.2-3,4.2 c-1.1,0-2.8-0.5-5-1.6c-7.6-3.4-16-5.2-25.4-5.2c-7.6,0-13.5,1.2-17.6,3.7s-6.2,6.4-6.2,11.8c0,3.7,1.3,6.9,4,9.4 c2.6,2.5,7.6,5,14.6,7.3l18.8,6c9.5,3,16.4,7.3,20.5,12.7s6.1,11.7,6.1,18.5c0,5.7-1.2,10.9-3.4,15.4c-2.4,4.5-5.6,8.5-9.7,11.7 c-4.1,3.3-9,5.7-14.7,7.4C348.9,127,342.7,127.9,335.9,127.9z" class="st0"/><g><path d="M360.9,192.3c-43.6,32.2-106.9,49.3-161.3,49.3c-76.3,0-145-28.2-197-75.1c-4.1-3.7-0.4-8.7,4.5-5.8 C63.3,193.2,132.6,213,204.2,213c48.3,0,101.5-10.1,150.3-30.7C361.9,178.9,368.1,187,360.9,192.3z" class="st1"/><path d="M379.1,171.6c-5.6-7.2-36.8-3.4-51-1.7c-4.2,0.5-4.9-3.2-1.1-6c24.9-17.5,65.8-12.5,70.6-6.6 c4.8,6-1.3,46.9-24.6,66.5c-3.6,3-7,1.5-5.4-2.5C372.9,208.2,384.7,178.7,379.1,171.6z" class="st1"/></g></g></svg>