<?xml version="1.0" encoding="UTF-8"?> <!-- Generator: Adobe Illustrator 23.0.2, SVG Export Plug-In . SVG Version: 6.00 Build 0) --> <svg xmlns="http://www.w3.org/2000/svg" xmlns:xlink="http://www.w3.org/1999/xlink" id="Layer_1" x="0px" y="0px" viewBox="0 0 400 245" style="enable-background:new 0 0 400 245;" xml:space="preserve"> <style type="text/css"> .st0{fill:#010101;} .st1{fill:#FFFFFF;} .st2{fill:#663795;} </style> <g> <g> <path class="st0" d="M236.9,115.3h10.5v37.5h-10.5v-4.9c-3.7,5.6-8.6,6-11.6,6c-11.6,0-19.1-9-19.1-19.9 c0-11.2,7.5-19.9,18.4-19.9c3,0,8.6,0.4,12,6v-4.9H236.9z M217.4,134c0,6,4.1,10.5,10.5,10.5c6,0,10.5-4.5,10.5-10.5 s-4.1-10.5-10.5-10.5C221.9,123.6,217.4,128,217.4,134z"></path> <path class="st0" d="M268,124.3v28.5h-10.5v-28.5h-4.1v-9h4.1v-12.7H268v12.7h7.1v9H268z"></path> <path class="st0" d="M299.9,124.3c-2.6-2.2-4.9-2.6-6-2.6c-2.6,0-4.1,1.1-4.1,3c0,1.1,0.4,2.2,3.4,3.4l2.6,0.7 c3,1.1,7.5,2.2,9.4,5.2c1.1,1.5,1.9,3.7,1.9,6.4c0,3.4-1.1,6.7-4.1,9.4c-3,2.6-6.7,4.1-11.2,4.1c-7.9,0-12-3.7-14.6-6.4l5.6-6.4 c2.2,2.2,5.2,4.5,8.2,4.5c3,0,5.2-1.5,5.2-4.1c0-2.2-1.9-3.4-3.4-3.7l-2.2-0.7c-2.6-1.1-5.6-2.2-7.9-4.5c-1.9-1.9-3-4.1-3-7.1 c0-3.7,1.9-6.7,3.7-8.6c3-2.2,6.7-2.6,9.7-2.6c2.6,0,7.1,0.4,12,4.1L299.9,124.3z"></path> <path class="st0" d="M322.8,120.2c3.7-5.2,9-6,12-6c10.9,0,18.4,8.6,18.4,19.9s-7.5,19.9-18.7,19.9c-2.2,0-7.9-0.4-12-6v4.9h-10.1 v-63h10.5V120.2z M321.6,134c0,6,4.1,10.5,10.5,10.5c6,0,10.5-4.5,10.5-10.5s-4.1-10.5-10.5-10.5S321.6,128,321.6,134z"></path> <path class="st0" d="M370.4,147.2l-18-31.9h12.4l11.6,21.4l10.5-21.4h12l-30,57.4h-12L370.4,147.2z"></path> <path class="st0" d="M203.6,121.7h-10.5h-15.7v10.5h13.9c-2.2,7.1-7.5,12-17.2,12c-10.9,0-18.7-9-18.7-19.9 c0-10.9,7.5-20.2,18.4-20.2c6,0,12,3,15.7,7.9l8.6-5.6c-5.6-7.9-14.6-12.4-24.4-12.4c-16.5,0-30,13.5-30,30.4s12.7,30.4,30,30.4 s30-13.5,30-30.4C203.9,123.2,203.6,122.4,203.6,121.7z"></path> </g> <g> <g> <path class="st1" d="M94.9,122.8H68.6v7.5h18c-2.6,11.2-10.9,20.6-21.7,24.4l-43.1-43.1C26.3,98.4,39,89.1,53.6,89.1 c11.2,0,21.4,5.6,27.7,14.2l5.6-4.9c-7.5-10.1-19.5-16.9-33.4-16.9c-19.5,0-36,13.9-40.1,32.2L63,163.3 C81,158.8,94.9,142.3,94.9,122.8z"></path> <path class="st1" d="M12.4,123.2c0,10.5,4.1,20.6,12,28.5c7.9,7.9,18.4,12,28.5,12L12.4,123.2z"></path> </g> <path class="st2" d="M53.6,70.3c-28.9,0-52.5,23.6-52.5,52.5s23.6,52.5,52.5,52.5s52.5-23.6,52.5-52.5S82.5,70.3,53.6,70.3z M24.4,152c-7.9-7.9-12-18.4-12-28.5L53.2,164C42.8,163.7,32.3,159.9,24.4,152z M62.6,162.9l-49.1-49.1 c4.1-18.4,20.6-32.2,40.1-32.2c13.9,0,25.9,6.7,33.4,16.9l-5.6,4.9C75,94.7,64.9,89.1,53.6,89.1c-14.6,0-27,9.4-31.9,22.5 l43.1,43.1c10.9-3.7,19.1-13.1,21.7-24.4h-18v-7.5h26.2C94.9,142.3,81,158.8,62.6,162.9z"></path> </g> </g> </svg> 