<?xml version="1.0" encoding="UTF-8"?> <!-- Generator: Adobe Illustrator 23.0.2, SVG Export Plug-In . SVG Version: 6.00 Build 0) --> <svg xmlns="http://www.w3.org/2000/svg" xmlns:xlink="http://www.w3.org/1999/xlink" id="Layer_1" x="0px" y="0px" viewBox="0 0 400 245" style="enable-background:new 0 0 400 245;" xml:space="preserve"> <style type="text/css"> .st0{fill-rule:evenodd;clip-rule:evenodd;fill:#192B3D;} .st1{fill-rule:evenodd;clip-rule:evenodd;fill:#4479BD;} </style> <g id="Page-1"> <g> <path id="Combined-Shape" class="st0" d="M88.8,145.6c12.5,0,22.6-10.1,22.6-22.6c0-12.5-10.1-22.6-22.6-22.6 c-12.5,0-22.6,10.1-22.6,22.6C66.2,135.5,76.3,145.6,88.8,145.6z M15.4,123c0,12.5,10.1,22.6,22.6,22.6h26.6 c-5.5-5.9-8.9-13.8-8.9-22.6s3.4-16.6,8.9-22.6H38C25.5,100.5,15.4,110.6,15.4,123z M88.8,90c18.3,0,33.1,14.8,33.1,33.1 s-14.8,33.1-33.1,33.1H38c-18.3,0-33.1-14.8-33.1-33.1S19.7,90,38,90H88.8z M183.5,106.7c1.5,2,2.7,4.4,3.5,7.2 c0.8,2.8,1.2,5.9,1.2,9.3c0,3.9-0.5,7.3-1.6,10.2c-1.1,3-2.5,5.5-4.2,7.6c-1.8,2.1-3.8,3.7-6,4.7c-2.3,1.1-4.6,1.6-7,1.6 c-4.9,0-9-2.8-10-3.4c-0.1,0-0.2,0-0.2,0v19h-13.3v-61.4h10.8l0.9,4.4h0.4c1.7-1.6,3.7-2.9,5.9-3.9c2.2-1.1,4.5-1.6,6.8-1.6 c2.7,0,5.1,0.5,7.3,1.6C180.1,103.2,182,104.7,183.5,106.7z M197.5,146.3v-44.8h13.3v44.8H197.5z M382.4,101.6h12.7l-15.5,45.2 c-1.1,2.8-2.2,5.3-3.4,7.4c-1.2,2.1-2.5,3.9-4.1,5.3c-1.5,1.4-3.3,2.5-5.2,3.2c-2,0.7-4.3,1.1-6.9,1.1c-1.4,0-2.6-0.1-3.5-0.2 c-1-0.2-1.9-0.4-2.8-0.7l2.3-10.1c0.4,0.1,0.9,0.2,1.4,0.4c0.5,0.1,1.1,0.2,1.5,0.2c2.2,0,3.9-0.5,5.1-1.6 c1.2-1.1,2.1-2.5,2.7-4.2l0.6-2.3l-17.2-43.6h13.4c0,0,9.3,27.2,9.9,29.5h0.4C374.4,128.9,382.4,101.6,382.4,101.6z M337.4,93.9 c-0.9,1-1.4,2.6-1.4,4.9v2.7h8v10.4h-8v34.4h-13.3v-34.4h-6v-9.8l6-0.5v-2.4c0-2.3,0.3-4.6,0.9-6.7c0.6-2.1,1.5-3.9,2.8-5.5 c1.3-1.6,3-2.8,5.1-3.7c2.1-0.9,4.7-1.4,7.7-1.4c1.9,0,3.6,0.2,5.1,0.5c1.5,0.4,2.8,0.7,3.8,1.1l-2.4,9.7 c-1.7-0.6-3.2-0.9-4.6-0.9C339.5,92.4,338.3,92.9,337.4,93.9z M307.6,106.6c1.6,1.9,2.8,4.2,3.6,6.8c0.8,2.6,1.2,5.5,1.2,8.5 c0,1.2-0.1,2.3-0.2,3.3c-0.1,1-0.2,1.8-0.4,2.3h-27.4c0.6,3.4,1.9,5.9,4,7.4c2.1,1.5,4.6,2.3,7.6,2.3c3.2,0,6.4-1,9.7-3l4.4,8 c-2.3,1.6-4.8,2.8-7.6,3.7c-2.8,0.9-5.6,1.4-8.3,1.4c-3.2,0-6.2-0.5-8.9-1.6c-2.8-1.1-5.2-2.6-7.2-4.6c-2-2-3.6-4.5-4.8-7.4 c-1.1-2.9-1.7-6.2-1.7-9.9c0-3.6,0.6-6.9,1.8-9.8c1.2-2.9,2.8-5.4,4.7-7.4c2-2,4.2-3.6,6.7-4.6c2.5-1.1,5.1-1.6,7.9-1.6 c3.2,0,6.6,0.5,9,1.6C304,103.2,306,104.7,307.6,106.6z M259.5,106.7c1.5,2,2.7,4.4,3.5,7.2c0.8,2.8,1.2,5.9,1.2,9.3 c0,3.9-0.5,7.3-1.6,10.2c-1.1,3-2.5,5.5-4.2,7.6c-1.8,2.1-3.8,3.7-6,4.7c-2.3,1.1-4.6,1.6-7,1.6c-4.9,0-9-2.8-10-3.4 c-0.1,0-0.2,0-0.2,0v19h-13.3v-61.4h10.8l0.9,4.4h0.4c1.7-1.6,3.7-2.9,5.9-3.9c2.2-1.1,4.5-1.6,6.8-1.6c2.7,0,5.1,0.5,7.3,1.6 C256.1,103.2,258,104.7,259.5,106.7z M209.7,83.1c1.4,1.3,2.1,2.9,2.1,5c0,2-0.7,3.7-2.1,5c-1.4,1.3-3.3,1.9-5.6,1.9 c-2.2,0-4.1-0.6-5.5-1.9c-1.4-1.3-2.2-3-2.2-5c0-2,0.7-3.7,2.2-5c1.4-1.3,3.3-1.9,5.5-1.9C206.4,81.2,208.3,81.8,209.7,83.1z M172.1,133.5c1.6-2.1,2.4-5.4,2.4-10.1c0-8.1-2.6-12.1-7.8-12.1c-2.6,0-5.1,1.4-7.7,4.1v18.3c1.2,1.1,2.4,1.8,3.6,2.3 c1.2,0.4,2.4,0.6,3.5,0.6C168.5,136.6,170.5,135.5,172.1,133.5z M284.3,119.3h16.8c0-2.6-1.1-8.8-8.1-8.8 C286,110.6,284.3,116.5,284.3,119.3z M248.1,133.5c1.6-2.1,2.4-5.4,2.4-10.1c0-8.1-2.6-12.1-7.8-12.1c-2.6,0-5.1,1.4-7.7,4.1v18.3 c1.2,1.1,2.4,1.8,3.6,2.3c1.2,0.4,2.4,0.6,3.5,0.6C244.5,136.6,246.5,135.5,248.1,133.5z"></path> <path id="Fill-3" class="st1" d="M88.8,100.5c-12.5,0-22.6,10.1-22.6,22.6c0,12.5,10.1,22.6,22.6,22.6c12.5,0,22.6-10.1,22.6-22.6 C111.3,110.6,101.2,100.5,88.8,100.5"></path> </g> </g> </svg> 