<?xml version="1.0" encoding="UTF-8"?> <!-- Generator: Adobe Illustrator 23.0.2, SVG Export Plug-In . SVG Version: 6.00 Build 0) --> <svg xmlns="http://www.w3.org/2000/svg" xmlns:xlink="http://www.w3.org/1999/xlink" id="Layer_1" x="0px" y="0px" viewBox="0 0 400 245" style="enable-background:new 0 0 400 245;" xml:space="preserve"> <style type="text/css"> .st0{fill:#59B8E8;} .st1{opacity:0.5;fill:#59B8E8;} .st2{opacity:0.4;fill:#59B8E8;} </style> <g> <path class="st0" d="M167.8,137.8c-5.4,0-10-1.8-14.2-4.4l2.6-3.9c4.2,2.7,8,3.9,12.3,3.9c5,0,7.4-1.9,7.4-4.2 c0-6.5-21.2-2.6-21.2-13c0-5.1,5.1-9.1,13.2-9.1c5.5,0,10.3,2.1,13,4.8l-3.2,3.3c-2.4-2.1-6.1-3.8-10-3.8c-4.8,0-8,1.7-8,4.2 c0,6,21.3,2.8,21.3,13C181,134.1,175.6,137.8,167.8,137.8z"></path> <path class="st0" d="M218.1,136.7l-3.3-7.1h-14.4l-3.2,7.1h-5.4l13.5-28.6h4.5l13.7,28.6H218.1z M207.5,113.9l-5.4,11.8h10.9 L207.5,113.9z"></path> <path class="st0" d="M236.3,136.7v-28.6h5.1v24.2h19.4v4.4H236.3z"></path> <path class="st0" d="M287.1,137.8c-5.4,0-10-1.8-14.2-4.4l2.6-3.9c4.2,2.7,8,3.9,12.3,3.9c5,0,7.4-1.9,7.4-4.2 c0-6.5-21.2-2.6-21.2-13c0-5.1,5.1-9.1,13.2-9.1c5.5,0,10.3,2.1,13,4.8l-3.2,3.3c-2.4-2.1-6.1-3.8-10-3.8c-4.8,0-8,1.7-8,4.2 c0,6,21.3,2.8,21.3,13C300.3,134.1,294.8,137.8,287.1,137.8z"></path> <path class="st0" d="M314.6,136.7v-28.6h5.1v28.6H314.6z"></path> <path class="st0" d="M341,112.6v8.2h13.3v4.2H341v11.8h-5.1v-28.6h22.9v4.4H341z"></path> <path class="st0" d="M387.3,125.3v11.5h-5.1v-11.5l-12.9-17.1h6l9.7,13.2l9.1-13.2h5.9L387.3,125.3z"></path> <polygon class="st0" points="61.2,122.5 61.2,122.5 61.2,122.5 "></polygon> <polygon class="st0" points="61.2,122.5 61.2,122.5 61.2,122.5 "></polygon> <path class="st1" d="M61.2,122.5C61.2,122.5,61.2,122.5,61.2,122.5C61.2,122.5,61.2,122.5,61.2,122.5 C61.2,122.5,61.2,122.5,61.2,122.5C61.2,122.5,61.2,122.5,61.2,122.5z"></path> <path class="st2" d="M45.9,96c0-10.6,5.5-20.8,15.3-26.5c-9.1-5.3-20.8-5.7-30.6,0C20.8,75.2,15.3,85.5,15.3,96 C25.1,90.4,36.7,90.8,45.9,96z"></path> <path class="st2" d="M118.2,107.2c-2.8-4.8-6.7-8.6-11.2-11.2c0,10.6-5.5,20.8-15.3,26.5c0,0,0,0,0,0c4.5,2.6,8.4,6.4,11.2,11.2 c2.8,4.8,4.1,10.1,4.1,15.3c0,0,0,0,0,0C121.7,140.5,126.7,121.8,118.2,107.2z"></path> <path class="st2" d="M72.4,80.7c2.8,4.8,4.1,10.1,4.1,15.3c0,0,0,0,0,0c9.8-5.7,21.4-5.3,30.6,0c0-5.2-1.3-10.5-4.1-15.3 c-8.4-14.6-27.1-19.6-41.8-11.2c0,0,0,0,0,0C65.7,72.1,69.6,75.9,72.4,80.7z"></path> <polygon class="st1" points="61.2,122.5 61.2,122.5 61.2,122.5 61.2,122.5 "></polygon> <path class="st1" d="M45.9,96c4.5,2.6,8.4,6.4,11.2,11.2c2.8,4.8,4.1,10.1,4.1,15.3c0,0,0,0,0,0c0,0,0,0,0,0 c0-10.6,5.5-20.8,15.3-26.5c0-5.2-1.3-10.5-4.1-15.3c-2.8-4.8-6.7-8.6-11.2-11.2C51.4,75.2,45.9,85.5,45.9,96z"></path> <path class="st2" d="M45.9,96c4.5,2.6,8.4,6.4,11.2,11.2c2.8,4.8,4.1,10.1,4.1,15.3c0,0,0,0,0,0c0,0,0,0,0,0 c0-10.6,5.5-20.8,15.3-26.5c0-5.2-1.3-10.5-4.1-15.3c-2.8-4.8-6.7-8.6-11.2-11.2C51.4,75.2,45.9,85.5,45.9,96z"></path> <path class="st1" d="M76.5,96C76.5,96,76.5,96,76.5,96c0,10.6-5.5,20.8-15.3,26.5c0,0,0,0,0,0c9.8-5.7,21.4-5.3,30.6,0c0,0,0,0,0,0 c9.8-5.7,15.3-15.9,15.3-26.5C97.9,90.7,86.3,90.4,76.5,96z"></path> <path class="st2" d="M76.5,96C76.5,96,76.5,96,76.5,96c0,10.6-5.5,20.8-15.3,26.5c0,0,0,0,0,0c9.8-5.7,21.4-5.3,30.6,0c0,0,0,0,0,0 c9.8-5.7,15.3-15.9,15.3-26.5C97.9,90.7,86.3,90.4,76.5,96z"></path> <path class="st1" d="M76.5,96c-9.8,5.7-15.3,15.9-15.3,26.5C71,116.8,76.4,106.6,76.5,96z"></path> <path class="st1" d="M76.5,96c-9.8,5.7-15.3,15.9-15.3,26.5C71,116.8,76.4,106.6,76.5,96z"></path> <path class="st0" d="M76.5,96c-9.8,5.7-15.3,15.9-15.3,26.5C71,116.8,76.4,106.6,76.5,96z"></path> <path class="st1" d="M61.2,122.5C61.2,122.5,61.2,122.5,61.2,122.5C61.2,122.5,61.2,122.5,61.2,122.5 C61.2,122.5,61.2,122.5,61.2,122.5C61.2,122.5,61.2,122.5,61.2,122.5C61.2,122.5,61.2,122.5,61.2,122.5 C61.2,122.5,61.2,122.5,61.2,122.5z"></path> <path class="st2" d="M76.4,149c0,10.6-5.5,20.8-15.3,26.5c9.1,5.3,20.8,5.7,30.6,0c9.8-5.7,15.3-15.9,15.3-26.5 C97.2,154.6,85.6,154.2,76.4,149z"></path> <path class="st1" d="M91.7,122.5c-9.8,5.7-21.4,5.3-30.6,0c0,0,0,0,0,0c4.5,2.6,8.4,6.4,11.2,11.2c2.8,4.8,4.1,10.1,4.1,15.3 c9.1,5.3,20.8,5.7,30.6,0c0-5.2-1.3-10.5-4.1-15.3C100.2,128.9,96.2,125.1,91.7,122.5z"></path> <path class="st2" d="M91.7,122.5c-9.8,5.7-21.4,5.3-30.6,0c0,0,0,0,0,0c4.5,2.6,8.4,6.4,11.2,11.2c2.8,4.8,4.1,10.1,4.1,15.3 c9.1,5.3,20.8,5.7,30.6,0c0-5.2-1.3-10.5-4.1-15.3C100.2,128.9,96.2,125.1,91.7,122.5z"></path> <polygon class="st1" points="61.2,122.5 61.2,122.5 61.2,122.5 "></polygon> <polygon class="st1" points="61.2,122.5 61.2,122.5 61.2,122.5 "></polygon> <path class="st1" d="M61.2,122.5C61.2,122.5,61.2,122.5,61.2,122.5c9.1,5.3,20.8,5.7,30.6,0C82.6,117.2,71,116.8,61.2,122.5z"></path> <path class="st1" d="M61.2,122.5C61.2,122.5,61.2,122.5,61.2,122.5c9.1,5.3,20.8,5.7,30.6,0C82.6,117.2,71,116.8,61.2,122.5z"></path> <path class="st0" d="M61.2,122.5C61.2,122.5,61.2,122.5,61.2,122.5c9.1,5.3,20.8,5.7,30.6,0C82.6,117.2,71,116.8,61.2,122.5z"></path> <path class="st2" d="M50,164.3c-2.8-4.8-4.1-10.1-4.1-15.3c0,0,0,0,0,0c-9.8,5.7-21.4,5.3-30.6,0c0,5.2,1.3,10.5,4.1,15.3 c8.4,14.6,27.1,19.6,41.8,11.2c0,0,0,0,0,0C56.7,172.9,52.8,169.1,50,164.3z"></path> <path class="st1" d="M76.4,149c-4.5-2.6-8.4-6.4-11.2-11.2c-2.8-4.8-4.1-10.1-4.1-15.3c0,0,0,0,0,0c0,10.6-5.5,20.8-15.3,26.5 c0,5.2,1.3,10.5,4.1,15.3c2.8,4.8,6.7,8.6,11.2,11.2C71,169.8,76.4,159.5,76.4,149z"></path> <path class="st2" d="M76.4,149c-4.5-2.6-8.4-6.4-11.2-11.2c-2.8-4.8-4.1-10.1-4.1-15.3c0,0,0,0,0,0c0,10.6-5.5,20.8-15.3,26.5 c0,5.2,1.3,10.5,4.1,15.3c2.8,4.8,6.7,8.6,11.2,11.2C71,169.8,76.4,159.5,76.4,149z"></path> <path class="st1" d="M76.4,149c0-5.2-1.3-10.5-4.1-15.3c-2.8-4.8-6.7-8.6-11.2-11.2c0,5.2,1.3,10.5,4.1,15.3 C68,142.6,71.9,146.4,76.4,149z"></path> <path class="st1" d="M76.4,149c0-5.2-1.3-10.5-4.1-15.3c-2.8-4.8-6.7-8.6-11.2-11.2c0,5.2,1.3,10.5,4.1,15.3 C68,142.6,71.9,146.4,76.4,149z"></path> <path class="st0" d="M76.4,149c0-5.2-1.3-10.5-4.1-15.3c-2.8-4.8-6.7-8.6-11.2-11.2c0,5.2,1.3,10.5,4.1,15.3 C68,142.6,71.9,146.4,76.4,149z"></path> <path class="st2" d="M30.6,122.5C30.6,122.5,30.6,122.5,30.6,122.5c-4.5-2.6-8.4-6.4-11.2-11.2c-2.8-4.8-4.1-10.1-4.1-15.3 c0,0,0,0,0,0c-14.6,8.4-19.6,27.1-11.2,41.8c2.8,4.8,6.7,8.6,11.2,11.2C15.3,138.4,20.8,128.2,30.6,122.5z"></path> <polygon class="st1" points="61.2,122.5 61.2,122.5 61.2,122.5 61.2,122.5 "></polygon> <path class="st1" d="M30.6,122.5c9.8-5.7,21.4-5.3,30.6,0c0,0,0,0,0,0c0,0,0,0,0,0c-4.5-2.6-8.4-6.4-11.2-11.2 c-2.8-4.8-4.1-10.1-4.1-15.3c-9.1-5.3-20.8-5.7-30.6,0c0,5.2,1.3,10.5,4.1,15.3C22.2,116.1,26.1,119.9,30.6,122.5z"></path> <path class="st2" d="M30.6,122.5c9.8-5.7,21.4-5.3,30.6,0c0,0,0,0,0,0c0,0,0,0,0,0c-4.5-2.6-8.4-6.4-11.2-11.2 c-2.8-4.8-4.1-10.1-4.1-15.3c-9.1-5.3-20.8-5.7-30.6,0c0,5.2,1.3,10.5,4.1,15.3C22.2,116.1,26.1,119.9,30.6,122.5z"></path> <path class="st1" d="M45.9,96c0,5.2,1.3,10.5,4.1,15.3c2.8,4.8,6.7,8.6,11.2,11.2c0-5.2-1.3-10.5-4.1-15.3 C54.3,102.4,50.4,98.6,45.9,96z"></path> <path class="st1" d="M45.9,96c0,5.2,1.3,10.5,4.1,15.3c2.8,4.8,6.7,8.6,11.2,11.2c0-5.2-1.3-10.5-4.1-15.3 C54.3,102.4,50.4,98.6,45.9,96z"></path> <path class="st0" d="M45.9,96c0,5.2,1.3,10.5,4.1,15.3c2.8,4.8,6.7,8.6,11.2,11.2c0-5.2-1.3-10.5-4.1-15.3 C54.3,102.4,50.4,98.6,45.9,96z"></path> <polygon class="st1" points="61.2,122.5 61.2,122.5 61.2,122.5 "></polygon> <polygon class="st1" points="61.2,122.5 61.2,122.5 61.2,122.5 "></polygon> <path class="st1" d="M45.9,149C45.9,149,45.9,149,45.9,149c0-10.6,5.5-20.8,15.3-26.5c0,0,0,0,0,0c-9.8,5.7-21.4,5.3-30.6,0 c0,0,0,0,0,0c-9.8,5.7-15.3,15.9-15.3,26.5C24.4,154.3,36.1,154.6,45.9,149z"></path> <path class="st2" d="M45.9,149C45.9,149,45.9,149,45.9,149c0-10.6,5.5-20.8,15.3-26.5c0,0,0,0,0,0c-9.8,5.7-21.4,5.3-30.6,0 c0,0,0,0,0,0c-9.8,5.7-15.3,15.9-15.3,26.5C24.4,154.3,36.1,154.6,45.9,149z"></path> <path class="st1" d="M30.6,122.5c9.1,5.3,20.8,5.7,30.6,0C52,117.2,40.4,116.8,30.6,122.5z"></path> <path class="st1" d="M30.6,122.5c9.1,5.3,20.8,5.7,30.6,0C52,117.2,40.4,116.8,30.6,122.5z"></path> <path class="st0" d="M30.6,122.5c9.1,5.3,20.8,5.7,30.6,0C52,117.2,40.4,116.8,30.6,122.5z"></path> <path class="st1" d="M45.9,149c9.8-5.7,15.3-15.9,15.3-26.5c0,0,0,0,0,0C51.4,128.2,45.9,138.4,45.9,149z"></path> <path class="st1" d="M45.9,149c9.8-5.7,15.3-15.9,15.3-26.5c0,0,0,0,0,0C51.4,128.2,45.9,138.4,45.9,149z"></path> <path class="st0" d="M45.9,149c9.8-5.7,15.3-15.9,15.3-26.5c0,0,0,0,0,0C51.4,128.2,45.9,138.4,45.9,149z"></path> </g> </svg> 