<?xml version="1.0" encoding="UTF-8"?> <!-- Generator: Adobe Illustrator 23.0.2, SVG Export Plug-In . SVG Version: 6.00 Build 0) --> <svg xmlns="http://www.w3.org/2000/svg" xmlns:xlink="http://www.w3.org/1999/xlink" id="Layer_1" x="0px" y="0px" viewBox="0 0 400 245" style="enable-background:new 0 0 400 245;" xml:space="preserve"> <style type="text/css"> .st0{fill-rule:evenodd;clip-rule:evenodd;fill:#15B1E3;} .st1{fill-rule:evenodd;clip-rule:evenodd;fill:#188CC3;} .st2{fill-rule:evenodd;clip-rule:evenodd;fill:#FFFFFF;} .st3{fill-rule:evenodd;clip-rule:evenodd;fill:#DEF2F8;} .st4{fill-rule:evenodd;clip-rule:evenodd;fill:#363A3B;} .st5{fill:#363A3B;} .st6{fill-rule:evenodd;clip-rule:evenodd;fill:#C08E2E;} .st7{fill-rule:evenodd;clip-rule:evenodd;fill:#A96D29;} </style> <g> <path class="st0" d="M166.3,6.6c3.2-4.6,6.3-6.2,8.3-3.5c6.5,8.7,15.9,13.2,25.4,13.7c9.5-0.5,18.9-5,25.4-13.7 c2-2.7,5.1-1.1,8.3,3.5c14.8,21.1,16.8,41.9,7.5,56.2c18.2,18.5,13.1,43.8,6.6,56c-2.8,5.2-3.9,4.8-7,2c-1-0.9-2.1-1.9-3.3-3 c-1.6,6.3-3.2,10.6-6,16.6c-3.8,8-12.1,9.3-12.5-0.1h-19h-19c-0.5,9.4-8.7,8-12.5,0.1c-2.8-6-4.4-10.3-6-16.6 c-1.3,1.1-2.4,2.2-3.3,3c-3.1,2.8-4.2,3.2-7-2c-6.5-12.2-11.6-37.5,6.6-56C149.5,48.6,151.5,27.7,166.3,6.6"></path> <path class="st1" d="M200,16.8c9.5-0.5,18.9-5,25.4-13.7c2-2.7,5.1-1.1,8.3,3.5c14.8,21.1,16.8,41.9,7.5,56.2 c18.2,18.5,13.1,43.8,6.6,56c-2.8,5.2-3.9,4.8-7,2c-1-0.9-2.1-1.9-3.3-3c-1.6,6.3-3.2,10.6-6,16.6c-3.8,8-12.1,9.3-12.5-0.1h-19 V79.6c0-1.6,1-2.9-4.9-3.6c-13.9-1.7-26.9-10.2-31.2-22.4c-0.9-2.5-1.3-5-1.3-7.7c0-5.2,2.3-9.8,6.5-12.9 c7.7-5.7,19.4-3.8,24.3,4.6c2.8,4.7,3.2,10.6,3.8,15.9c0.2,2,0.4,4.1,0.7,6.1c0.2,0.9,0.4,2.2,1.4,2.6c0.5,0.2,0.2,0.2,0.8,0.2 V16.8z"></path> <path class="st0" d="M192.2,162.4c-0.4,1-1.6,7.2-3.1,8.2c-5.3,3.4-20.7-34.4-21.7-38.6c18.5-1.7,46.8-1.8,65.3,0 c-1,4.1-16.3,42.1-21.7,38.7c-1.5-0.9-2.7-7.2-3.1-8.2c-0.8,2.3-4,16.7-8.3,15.7C195.5,177.2,193.2,165.4,192.2,162.4"></path> <path class="st1" d="M200,130.6c11.7,0,23.4,0.4,32.7,1.3c-0.3,1.2-1.7,5-3.7,9.8l0,0.1l0,0l0,0.1l0,0.1l0,0.1l0,0.1l0,0.1l0,0.1 l-0.1,0.1l0,0.1l0,0.1l0,0.1l0,0.1l0,0l0,0l0,0.1l0,0.1l0,0.1l0,0.1l0,0.1l0,0.1l0,0.1l-0.1,0.1l0,0.1l0,0.1l0,0.1l0,0l0,0l0,0.1 l0,0.1l-0.1,0.1l0,0.1l-0.1,0.1l0,0.1l0,0.1l0,0.1l0,0.1l0,0.1l0,0l0,0.1l0,0.1l0,0.1l-0.3,0.6l0,0.1l0,0l0,0.1l0,0.1l-0.1,0.3 l0,0.1l-0.1,0.3l0,0.1c-5.2,12-12.8,26.8-16.2,24.6c-1.5-0.9-2.7-7.2-3.1-8.2c-0.7,2.2-3.8,15.8-7.9,15.8v-32.6 c0-2.1-0.2-4.9-5.3-4.7c-7.3,0.2-16,1.1-23.2,2.1c-0.7-1.5-1.8-4.5-2.4-5.8c9.1-1.1,20.7-1.8,30.8-1.8h0V130.6z"></path> <path class="st2" d="M200,71.9c2,0,4-0.1,6-0.4c14.6-2.1,31.5-12.7,31.5-29.1c0-5.2-2.4-9.8-6.5-12.9c-7.7-5.7-19.4-3.8-24.3,4.6 c-2.8,4.7-3.2,10.6-3.8,15.9c-0.2,2-0.4,4.1-0.7,6.1c-0.2,0.9-0.4,2.2-1.4,2.6c-0.5,0.2-0.2,0.2-0.8,0.2s-0.2,0.1-0.8-0.2 c-0.9-0.4-1.2-1.7-1.4-2.6c-0.3-2-0.5-4.1-0.7-6.1c-0.6-5.3-1-11.2-3.8-15.9c-5-8.4-16.7-10.3-24.3-4.6c-4.2,3.1-6.5,7.6-6.5,12.9 c0,2.6,0.5,5.2,1.3,7.7C168.9,64,185.9,71.9,200,71.9"></path> <path class="st3" d="M200,71.9c2,0,4-0.1,6-0.4c14.6-2.1,31.5-12.7,31.5-29.1c0-5.2-2.4-9.8-6.5-12.9c-7.7-5.7-19.4-3.8-24.3,4.6 c-2.8,4.7-3.2,10.6-3.8,15.9c-0.2,2-0.4,4.1-0.7,6.1c-0.2,0.9-0.4,2.2-1.4,2.6c-0.5,0.2-0.2,0.2-0.8,0.2V71.9z"></path> <path class="st4" d="M182.9,36.1c4,0,7.2,3.2,7.2,7.2c0,4-3.2,7.2-7.2,7.2c-4,0-7.2-3.2-7.2-7.2C175.8,39.3,179,36.1,182.9,36.1 M217.2,36.1c4,0,7.2,3.2,7.2,7.2c0,4-3.2,7.2-7.2,7.2c-4,0-7.2-3.2-7.2-7.2C210,39.3,213.2,36.1,217.2,36.1z"></path> <path class="st2" d="M185.2,39.2c1.1,0,2.1,0.9,2.1,2.1s-0.9,2.1-2.1,2.1c-1.1,0-2.1-0.9-2.1-2.1S184.1,39.2,185.2,39.2"></path> <path class="st2" d="M219.6,39.2c1.1,0,2.1,0.9,2.1,2.1s-0.9,2.1-2.1,2.1c-1.1,0-2.1-0.9-2.1-2.1S218.4,39.2,219.6,39.2"></path> <path class="st2" d="M200,79.3c-10.5,0-19.1,8.4-19.4,18.9c-0.3,0-0.6,0-0.9,0c-7.7,0-13.9,6.2-13.9,13.9c0,7.7,6.2,13.9,13.9,13.9 c13.8,0,26.8,0,40.6,0c7.7,0,13.9-6.2,13.9-13.9c0-7.7-6.2-13.9-13.9-13.9c-3.6,0-6.8,1.1-9.5,3.5c1.4-3.2,4.2-6.1,8-7.9 C216.7,85.5,209.1,79.3,200,79.3"></path> <path class="st5" d="M274.1,236c3,0,5.5-1.1,7.6-3.2c2.1-2.2,3.2-4.8,3.2-7.8c0-3.1-1-5.7-3.2-7.9c-2.1-2.2-4.6-3.2-7.6-3.2 c-3,0-5.5,1.1-7.6,3.2c-2.1,2.2-3.2,4.8-3.2,7.9c0,3,1.1,5.7,3.2,7.8C268.6,234.9,271.1,236,274.1,236 M205.1,236 c3,0,5.5-1.1,7.6-3.2c2.1-2.2,3.2-4.8,3.2-7.8c0-3.1-1-5.7-3.2-7.9c-2.1-2.2-4.6-3.2-7.6-3.2s-5.5,1.1-7.6,3.2 c-2.1,2.2-3.2,4.8-3.2,7.9c0,3,1.1,5.7,3.2,7.8C199.5,234.9,202.1,236,205.1,236z M151.8,236c3,0,5.5-1.1,7.6-3.2 c2.1-2.2,3.2-4.8,3.2-7.8c0-3.1-1-5.7-3.2-7.9c-2.1-2.2-4.6-3.2-7.6-3.2c-3,0-5.5,1.1-7.6,3.2c-2.1,2.2-3.2,4.8-3.2,7.9 c0,3,1.1,5.7,3.2,7.8C146.3,234.9,148.8,236,151.8,236z M232.5,234.3c0.8,0,1.5,0.2,2.1,0.6c0.7,0.4,1.3,0.9,1.7,1.7 c0.4,0.7,0.6,1.4,0.6,2.2c0,0.8-0.2,1.5-0.6,2.2c-0.4,0.7-0.9,1.3-1.6,1.6c-0.7,0.4-1.4,0.6-2.2,0.6c-0.8,0-1.5-0.2-2.2-0.6 c-0.7-0.4-1.3-0.9-1.6-1.6c-0.4-0.7-0.6-1.4-0.6-2.2c0-0.8,0.2-1.5,0.6-2.2c0.4-0.7,1-1.3,1.7-1.7 C231,234.5,231.8,234.3,232.5,234.3z M274.1,206.6c5,0,9.2,1.8,12.7,5.4c3.5,3.6,5.3,7.9,5.3,12.9c0,5-1.8,9.3-5.3,12.9 c-3.5,3.5-7.8,5.4-12.7,5.4c-5,0-9.2-1.8-12.7-5.4c-3.5-3.6-5.3-7.9-5.3-12.9c0-5,1.8-9.4,5.3-12.9 C264.9,208.4,269.1,206.6,274.1,206.6z M247.6,206.6c1,0,1.8,0.4,2.5,1.1c0.7,0.7,1.1,1.6,1.1,2.6v29.4c0,1-0.4,1.9-1.1,2.5 c-0.7,0.7-1.6,1-2.5,1c-1,0-1.8-0.3-2.5-1c-0.7-0.7-1.1-1.5-1.1-2.5v-29.4c0-1,0.4-1.9,1.1-2.5C245.8,207,246.6,206.6,247.6,206.6z M247.6,194.7c0.8,0,1.5,0.2,2.1,0.6c0.7,0.4,1.3,0.9,1.7,1.7c0.4,0.7,0.6,1.4,0.6,2.2c0,0.8-0.2,1.5-0.6,2.2 c-0.4,0.7-0.9,1.3-1.6,1.6c-0.7,0.4-1.4,0.6-2.2,0.6c-0.8,0-1.5-0.2-2.2-0.6c-0.7-0.4-1.3-0.9-1.6-1.6c-0.4-0.7-0.6-1.4-0.6-2.2 c0-0.8,0.2-1.5,0.6-2.2c0.4-0.7,1-1.3,1.7-1.7C246.1,194.9,246.8,194.7,247.6,194.7z M205.1,206.6c5,0,9.2,1.8,12.7,5.4 c3.5,3.6,5.3,7.9,5.3,12.9c0,5-1.8,9.3-5.3,12.9c-3.5,3.5-7.8,5.4-12.7,5.4c-5,0-9.2-1.8-12.7-5.4c-3.5-3.6-5.3-7.9-5.3-12.9 c0-5,1.8-9.4,5.3-12.9C195.8,208.4,200.1,206.6,205.1,206.6z M178.4,194.7c1,0,1.9,0.4,2.6,1.1c0.7,0.7,1,1.6,1,2.5v41.3 c0,1-0.4,1.8-1.1,2.5c-0.7,0.7-1.6,1-2.5,1c-1,0-1.8-0.3-2.6-1c-0.7-0.7-1-1.6-1-2.5v-41.3c0-1,0.3-1.8,1-2.5 C176.6,195,177.4,194.7,178.4,194.7z M151.8,206.6c5,0,9.2,1.8,12.7,5.4c3.5,3.6,5.3,7.9,5.3,12.9c0,5-1.8,9.3-5.3,12.9 c-3.5,3.5-7.8,5.4-12.7,5.4c-5,0-9.2-1.8-12.7-5.4c-3.5-3.6-5.3-7.9-5.3-12.9c0-5,1.8-9.4,5.3-12.9 C142.6,208.4,146.8,206.6,151.8,206.6z M120,243.2c-2.6,0-5-0.8-7.1-2.2c-1.8-1.2-3.3-2.7-4.5-4.6c-0.5-0.8-0.7-1.8-0.4-2.7 c0.2-1,0.7-1.7,1.6-2.3c0.8-0.5,1.8-0.6,2.7-0.4c1,0.2,1.7,0.8,2.2,1.6c0.6,0.9,1.4,1.7,2.3,2.3c0.9,0.6,2,1.1,3.1,1.1 c1.2,0,2.2-0.3,3.1-1.2c0.8-0.7,1.3-1.5,1.3-2.6c0-0.9-0.2-1.7-0.9-2.2c-1-0.7-3.3-1.4-4.4-1.7c-2.2-0.6-4.9-1.5-6.8-2.8 c-2.7-1.9-3.8-4.7-3.8-7.9c0-3.1,1.2-5.7,3.4-7.8c2.3-2.2,5-3.2,8.2-3.2c2.3,0,4.4,0.6,6.4,1.8c1.9,1.2,3.3,2.8,4.3,4.8 c0.4,0.9,0.5,1.8,0.1,2.8c-0.3,0.9-1,1.6-1.9,2c-0.9,0.4-1.8,0.4-2.7,0.1c-0.9-0.3-1.6-1-2-1.9c-0.3-0.7-0.9-1.3-1.6-1.7 c-0.8-0.4-1.6-0.7-2.5-0.7c-1.2,0-2.2,0.4-3.1,1.1c-0.8,0.7-1.2,1.6-1.2,2.6c0,0.8,0.2,1.7,0.9,2.2c1,0.7,3.3,1.3,4.5,1.6 c2.2,0.6,5,1.5,6.8,2.9c2.7,2,3.8,4.7,3.8,8c0,3.1-1.2,5.7-3.4,7.8C125.9,242.2,123.1,243.2,120,243.2z"></path> <path class="st6" d="M126.3,121.3c0.5-3.9,3.4-7.9,7.4-8.9c2.2,1.7,4.5,3.3,6.8,4.9c3.6,2.4,7.2,4.5,11,6.5c6.1,3.3,8,5.2,15.4,4 c11-1.7,22.2-2.5,33.4-2.5c14,0,28.1,1.3,41.8,4c12.4,2.5,24.7,6.2,36.2,11.5c0.5,4.1-1,8.5-4.8,10.5c-10.7-4.9-22.2-8.3-33.7-10.6 c-13-2.6-26.3-3.8-39.5-3.8c-13.2,0-26.5,1.2-39.5,3.8c-11.5,2.3-23.1,5.7-33.8,10.6c-4.7-2-5.9-5.6-4.8-10.5 c6.2-2.9,12.7-5.3,19.3-7.2l2.5-0.8l-2.3-1.3C136.4,128.4,131.2,125,126.3,121.3"></path> <path class="st7" d="M126.3,121.9c0.2-1.8,1-3.6,2-5.1c7.2,5.5,14.6,10.8,22.6,14.9c-2.3,0.6-4.7,1.2-7,1.7l-2.3-1.3 C136.4,129,131.2,125.6,126.3,121.9"></path> <path class="st7" d="M277,147.7c-0.8,1.5-2,2.7-3.6,3.5c-10.7-4.9-22.2-8.3-33.7-10.6c-13-2.6-26.3-3.8-39.5-3.8 c-13.2,0-26.5,1.2-39.5,3.8c-11.5,2.3-23.1,5.7-33.8,10.6c-2-0.9-3.3-2-4.2-3.4c17.8-9.3,45.8-15.3,77.3-15.3 C231.4,132.6,259.3,138.5,277,147.7"></path> </g> </svg> 